<svg width="553" height="414" viewBox="0 0 553 414" fill="none" xmlns="http://www.w3.org/2000/svg">
<path d="M0 20C0 8.95431 8.95431 0 20 0H218.874C223.786 0 228.525 1.80721 232.19 5.07717L285.81 52.9228C289.475 56.1928 294.214 58 299.126 58H533C544.046 58 553 66.9543 553 78V260C553 271.046 544.046 280 533 280H20C8.95431 280 0 271.046 0 260V20Z" fill="#19DDEA"/>
<path d="M0 109.307C0 98.2615 8.95431 89.3072 20 89.3072H240.698C245.089 89.3072 249.357 87.8623 252.845 85.1954L330.122 26.1118C333.61 23.4449 337.879 22 342.27 22H533C544.046 22 553 30.9543 553 42V394C553 405.046 544.046 414 533 414H20C8.95431 414 0 405.046 0 394V109.307Z" fill="white"/>
<path d="M0 392H553V394C553 405.046 544.046 414 533 414H20C8.95431 414 0 405.046 0 394V392Z" fill="#19DDEA"/>
<rect x="338" y="41" width="193" height="50" rx="10" fill="#19DDEA"/>
<rect x="20" y="223" width="39" height="15" rx="5" fill="#505050"/>
<rect x="20" y="280" width="39" height="15" rx="5" fill="#505050"/>
<rect x="20" y="337" width="39" height="15" rx="5" fill="#505050"/>
<rect x="67" y="211" width="394" height="40" rx="5" fill="#505050"/>
<rect x="67" y="268" width="340" height="40" rx="5" fill="#505050"/>
<rect x="67" y="325" width="340" height="40" rx="5" fill="#505050"/>
</svg>
