<svg width="82" height="70" viewBox="0 0 82 70" fill="none" xmlns="http://www.w3.org/2000/svg">
<path d="M47.1776 3.58988C38.3207 -5.10641 25.7482 4.4526 20.2126 6.63818C14.677 8.82376 -3.47302 17.6351 0.586412 41.6074C5.6607 71.5728 35.4355 68.3519 52.881 69.6748C70.3264 70.9976 85.2138 56.8489 81.3976 46.8413C77.5814 36.8336 83.117 8.82376 76.7846 3.58988C70.4523 -1.644 58.2488 14.4602 47.1776 3.58988Z" fill="#F9F9F9"/>
<path d="M5.38509 27.446C5.37174 32.5519 7.01948 41.4726 13.7173 36.3078C22.0895 29.8519 20.2889 11.2506 24.32 5.66318C28.3511 0.0757991 32.5873 35.5336 34.7208 30.3996C36.8543 25.2656 40.7214 -1.20434 46.0552 4.79641C51.3889 10.7972 56.6574 34.5335 50.3889 41.7344" stroke="#505050" stroke-width="5.50746" stroke-linecap="round"/>
<path d="M71.1074 32.3428C71.1074 21.8413 57.8619 22.9087 57.6864 22.9234C57.681 22.9238 57.6879 22.9237 57.6825 22.9234C57.5073 22.9153 46.8737 22.438 45.0701 26.4089C43.2515 30.4129 42.5876 56.5967 45.0701 59.4484C47.5526 62.3002 71.1074 65.0655 71.1074 53.2553C71.1074 44.4993 63.7292 42.1875 59.9133 41.5774C59.7607 41.553 59.7686 41.4374 59.923 41.434C63.7418 41.3503 71.1074 40.1738 71.1074 32.3428Z" stroke="#505050" stroke-width="5.1403"/>
</svg>
