<svg width="36" height="40" viewBox="0 0 36 40" fill="none" xmlns="http://www.w3.org/2000/svg">
<path d="M28 12.5V10C28 4.48594 23.514 0 18 0C12.4859 0 8 4.48594 8 10V12.5H0.5V33.75C0.5 37.2018 3.2982 40 6.75 40H29.25C32.7018 40 35.5 37.2018 35.5 33.75V12.5H28ZM13 10C13 7.24297 15.243 5 18 5C20.757 5 23 7.24297 23 10V12.5H13V10ZM25.5 19.375C24.4645 19.375 23.625 18.5355 23.625 17.5C23.625 16.4645 24.4645 15.625 25.5 15.625C26.5355 15.625 27.375 16.4645 27.375 17.5C27.375 18.5355 26.5355 19.375 25.5 19.375ZM10.5 19.375C9.46445 19.375 8.625 18.5355 8.625 17.5C8.625 16.4645 9.46445 15.625 10.5 15.625C11.5355 15.625 12.375 16.4645 12.375 17.5C12.375 18.5355 11.5355 19.375 10.5 19.375Z" fill="#505050"/>
</svg>
