<svg width="670" height="570" viewBox="0 0 670 570" fill="none" xmlns="http://www.w3.org/2000/svg">
<g filter="url(#filter0_i_504_41)">
<path d="M385.476 29.3319C313.108 -41.7231 210.381 36.381 165.152 54.2388C119.922 72.0966 -28.3771 144.091 4.79141 339.963C46.2521 584.802 289.534 558.485 432.076 569.294C574.619 580.102 696.259 464.497 665.078 382.727C633.897 300.958 679.127 72.0966 627.387 29.3319C575.646 -13.4327 475.935 118.151 385.476 29.3319Z" fill="#F9F9F9"/>
</g>
<g filter="url(#filter1_i_504_41)">
<path d="M44.0007 224.253C43.8916 265.973 57.3548 338.861 112.081 296.661C180.488 243.912 165.776 91.9251 198.713 46.2721C231.65 0.619134 266.263 290.335 283.695 248.387C301.128 206.438 332.724 -9.84051 376.305 39.19C419.886 88.2204 462.933 282.163 411.714 341" stroke="#505050" stroke-width="45" stroke-linecap="round"/>
</g>
<g filter="url(#filter2_i_504_41)">
<path d="M581 264.264C581 178.46 472.775 187.181 471.34 187.3C471.296 187.304 471.353 187.303 471.308 187.301C469.877 187.234 382.993 183.335 368.256 215.78C353.397 248.495 347.972 462.437 368.256 485.737C388.54 509.038 581 531.632 581 435.135C581 363.592 520.715 344.702 489.536 339.717C488.289 339.518 488.353 338.574 489.615 338.546C520.818 337.862 581 328.249 581 264.264Z" stroke="#505050" stroke-width="42"/>
</g>
<defs>
<filter id="filter0_i_504_41" x="0" y="0" width="670" height="570" filterUnits="userSpaceOnUse" color-interpolation-filters="sRGB">
<feFlood flood-opacity="0" result="BackgroundImageFix"/>
<feBlend mode="normal" in="SourceGraphic" in2="BackgroundImageFix" result="shape"/>
<feColorMatrix in="SourceAlpha" type="matrix" values="0 0 0 0 0 0 0 0 0 0 0 0 0 0 0 0 0 0 127 0" result="hardAlpha"/>
<feOffset/>
<feGaussianBlur stdDeviation="12"/>
<feComposite in2="hardAlpha" operator="arithmetic" k2="-1" k3="1"/>
<feColorMatrix type="matrix" values="0 0 0 0 0 0 0 0 0 0 0 0 0 0 0 0 0 0 0.5 0"/>
<feBlend mode="normal" in2="shape" result="effect1_innerShadow_504_41"/>
</filter>
<filter id="filter1_i_504_41" x="21.5" y="9.46606" width="436" height="354.034" filterUnits="userSpaceOnUse" color-interpolation-filters="sRGB">
<feFlood flood-opacity="0" result="BackgroundImageFix"/>
<feBlend mode="normal" in="SourceGraphic" in2="BackgroundImageFix" result="shape"/>
<feColorMatrix in="SourceAlpha" type="matrix" values="0 0 0 0 0 0 0 0 0 0 0 0 0 0 0 0 0 0 127 0" result="hardAlpha"/>
<feOffset/>
<feGaussianBlur stdDeviation="12.5"/>
<feComposite in2="hardAlpha" operator="arithmetic" k2="-1" k3="1"/>
<feColorMatrix type="matrix" values="0 0 0 0 0 0 0 0 0 0 0 0 0 0 0 0 0 0 0.5 0"/>
<feBlend mode="normal" in2="shape" result="effect1_innerShadow_504_41"/>
</filter>
<filter id="filter2_i_504_41" x="334" y="165.998" width="268" height="361.002" filterUnits="userSpaceOnUse" color-interpolation-filters="sRGB">
<feFlood flood-opacity="0" result="BackgroundImageFix"/>
<feBlend mode="normal" in="SourceGraphic" in2="BackgroundImageFix" result="shape"/>
<feColorMatrix in="SourceAlpha" type="matrix" values="0 0 0 0 0 0 0 0 0 0 0 0 0 0 0 0 0 0 127 0" result="hardAlpha"/>
<feOffset/>
<feGaussianBlur stdDeviation="12.5"/>
<feComposite in2="hardAlpha" operator="arithmetic" k2="-1" k3="1"/>
<feColorMatrix type="matrix" values="0 0 0 0 0 0 0 0 0 0 0 0 0 0 0 0 0 0 0.5 0"/>
<feBlend mode="normal" in2="shape" result="effect1_innerShadow_504_41"/>
</filter>
</defs>
</svg>
